<?xml version="1.0" encoding="UTF-8"?>
<svg id="Layer_1" data-name="Layer 1" xmlns="http://www.w3.org/2000/svg" viewBox="0 0 1920 611.7">
  <defs>
    <style>
      .cls-1 {
        fill: #daa000;
      }
    </style>
  </defs>
  <g>
    <polygon class="cls-1" points="1547.12 232.1 1547.12 232.1 1681.74 229.19 1547.12 232.1"/>
    <polygon class="cls-1" points="1531.19 229.2 1530.66 232.45 1531.02 232.44 1531.55 229.2 1531.19 229.2"/>
    <path class="cls-1" d="M120.67,220.27c4.37,7.39,7.47,15.8,8.78,24.75,2.2,14.98-1.07,28.48-8.04,38.1l91.88.54,10.87-62.78-103.5-.61h.01Z"/>
    <path class="cls-1" d="M522.61,215.02c-.87,4.61-4.11,7.58-8.32,7.58h-.07l-200.72-1.19-10.87,62.79,220.48,1.31h.46c25.83,0,45.97-18.45,51.36-47.13l13.89-73.71c4.35-23.12-1.83-49.24-16.55-69.86-14.71-20.62-35.95-32.94-56.81-32.94h-204.38c-25.95,0-46.7,19.48-51.62,48.48l-18.77,110.63-10.65,62.78-13.58,80.02c-3.91,23.05,2.54,48.9,17.25,69.16,14.69,20.23,35.75,32.3,56.34,32.3h.09l278.89-.45,1.05-6.06,7-40.35,2.9-16.73-18.71.22v.02l-280.43.45h-.01c-4.6,0-7.66-3.25-9.07-5.2-1.41-1.94-3.65-5.97-2.77-11.13l17.29-101.91,10.65-62.79,15.06-88.74c.79-4.67,4.13-7.81,8.31-7.81h204.38c4.66,0,7.73,3.32,9.14,5.3,1.41,1.98,3.64,6.07,2.66,11.24l-13.89,73.71h.02Z"/>
    <polygon class="cls-1" points="1014.73 124.64 1014.55 124.64 1006.91 158.89 1007.05 158.96 1014.73 124.64"/>
    <path class="cls-1" d="M1014.55,124.64h.18l5.21-23.3c-.5,1.66-.95,3.35-1.34,5.09l-4.06,18.21h.01Z"/>
    <path class="cls-1" d="M1216.32,344.97h-.08l-1.54,9.04h.21c.22-1.76.45-3.32.65-4.52l.76-4.52h0Z"/>
    <polygon class="cls-1" points="1221.39 314.74 1219.68 324.78 1219.71 324.78 1221.39 314.74"/>
    <polygon class="cls-1" points="1219.68 324.78 1216.24 344.97 1216.32 344.97 1219.71 324.78 1219.68 324.78"/>
    <path class="cls-1" d="M1324.52,364.25l2.27-12.45-2.01,10.82c-.1.54-.16,1.08-.25,1.62h-.01Z"/>
    <path class="cls-1" d="M1227.67,280.74c-.03-1.28.05-2.54.17-3.79l-1.06,6.24c.57-.79.91-1.63.9-2.45h-.01Z"/>
    <path class="cls-1" d="M1228.08,274.91v-.08l.11.04.38-2.25-.11-.05-.38,2.28v.05h0Z"/>
    <path class="cls-1" d="M1226.66,283.34s.07-.1.11-.15l1.06-6.24c.07-.69.13-1.37.24-2.04l-1.41,8.43Z"/>
    <path class="cls-1" d="M1221.39,314.74l5.38-31.54s-.07.1-.11.15l-5.27,31.39h0Z"/>
    <path class="cls-1" d="M1228.08,274.91c-.11.67-.17,1.36-.24,2.04l.35-2.08-.1-.04v.08h-.01Z"/>
    <path class="cls-1" d="M129.45,245.02c-1.31-8.95-4.42-17.36-8.78-24.75l-8.42-.05,8.95,62.9h.22c6.97-9.62,10.23-23.12,8.04-38.1h0Z"/>
    <path class="cls-1" d="M1422.94,525.75l10.93,4.56,41.66,17.37,8.07-49s-.01-.02-.02-.03l36.62-202.86,2.49-12.66,2.95-17.97,2.95-17.97,2.06-14.73.53-3.25,16.06-97.49c.77-4.69,3.96-7.77,8.14-7.86l177.55-3.72,38.76-.81h.21c.13,0,.24.03.37.03.98.76,2,1.54,3.11,2.4,3.2,2.46,4.9,6.94,4.09,10.79l-19.89,94.96-16.43.35h0s-61.41,1.34-61.41,1.34l-134.62,2.9-2.47,15.09-2.95,17.97-2.95,17.97-2.02,12.31,233.53-5.04c25.35-.55,45.1-19.16,50.31-47.41l15.49-84.05c4.3-23.35-2.09-49.61-17.08-70.25-15-20.63-36.44-32.64-57.42-32.25l-216.3,4.53c-7.73.16-14.91,2.01-21.33,5.26-7.87,3.98-14.56,10.12-19.65,17.97-4.67,7.2-8.01,15.82-9.62,25.6l-31.09,188.63-17.13,103.94-10.37,62.9-4.17,26.05"/>
    <path class="cls-1" d="M1278.7,385.78c0,.47.02.93.04,1.36.38.02.78.02,1.2.02"/>
    <g>
      <path class="cls-1" d="M1031.87,61.73h-331.67c-25.06,0-45.08,17.75-51,45.23l-16.36,75.96c-4.91,22.81.78,48.83,15.23,69.61,14.45,20.78,35.5,33.22,56.34,33.29l156.26.37c4.82.02,7.91,3.51,9.32,5.6,1.41,2.09,3.59,6.36,2.31,11.58l-22.15,90.17c-1.03,4.22-4.22,6.94-8.17,6.94h-.06l-118.79-.55-126.99,1.52-10.95,63.15,147.32-1.77,118.38.55h.36c24.27,0,44.08-16.91,50.52-43.17l22.15-90.17c5.73-23.31.35-50.2-14.37-71.94-14.73-21.74-36.39-34.75-57.97-34.82l-156.26-.37c-4.23-.01-6.98-3.06-8.24-4.87s-3.22-5.54-2.23-10.18l16.35-75.95c.95-4.42,4.18-7.28,8.21-7.28h282.74l5.21-23.3c7.3-24.23,11.23-39.6,34.49-39.6h.02Z"/>
      <path class="cls-1" d="M1388.94,402.37c-4.66,0-7.72-3.31-9.13-5.29s-3.64-6.06-2.67-11.23l41.21-221.48c4.3-23.11-1.91-49.2-16.63-69.78-14.71-20.58-35.92-32.86-56.75-32.86h-275.46c-23.26,0-42.24,15.37-49.54,39.6l-5.21,23.3-7.68,34.33-.14-.07-44.74,200.54c-5.22,23.4.56,50.12,15.46,71.48,14.77,21.18,36.18,33.76,57.38,33.76h1.01l74.25-2.3,119.92-.4c-4.25-4.15-7.85-8.44-10.83-12.55-10.37-14.26-17.15-31.14-20.34-50.23l-102.67.4-70.6,2.18c-4.7-.03-7.76-3.4-9.17-5.43-1.43-2.05-3.65-6.27-2.49-11.5l56.46-253.01c.97-4.37,4.19-7.19,8.18-7.19h275.46c4.66,0,7.72,3.31,9.13,5.29,1.41,1.97,3.64,6.06,2.67,11.23l-39.19,210.66-2.27,12.45c-2.16,13.18-.96,27.24,3.24,40.66l-45.11.22h-.06c-7.5,0-13.41-1.73-15.44-4.51-2.05-2.82-3.56-9.48-3.72-17.54-.08-4.1.17-8.54.93-13.07l2.71-16.16,4.91-29.23,3.3-19.15,2.02-12.55,13.67-81.92c1.04-6.26.09-13.03-2.5-19.23-1.13-2.7-2.53-5.3-4.27-7.69-5.72-7.85-13.91-12.53-21.91-12.53h-.07l-124.28.41c-9.56.03-17.24,6.72-19.68,17.11l-26.96,114.96c-2.12,9.06.07,19.59,5.81,27.94,5.73,8.33,14.2,13.36,22.5,13.36h.08l80.45-.3,3.45-20.21,6.53-38.28-67.1-1.98,17-56.45,75.54,1.97-7.09,42.49.11.05-.38,2.25-.35,2.08c-.12,1.25-.2,2.51-.17,3.79.02.82-.32,1.66-.9,2.45l-5.38,31.54-1.69,10.04-3.39,20.19-.76,4.52c-.2,1.2-.43,2.76-.65,4.52l-.63,29.22c1.34,15.93,5.82,34.54,17.56,50.68,9.84,13.53,25.42,29.59,56.69,29.59.04,0,82.52,1.77,82.52,1.77h51.28l9.53-62.9h-42.96Z"/>
    </g>
  </g>
  <ellipse class="cls-1" cx="1448.52" cy="539.9" rx="45.23" ry="48.58"/>
  <ellipse class="cls-1" cx="112.25" cy="251.67" rx="45.23" ry="48.58"/>
</svg>